<?xml version="1.0" standalone="no"?>
<!DOCTYPE svg PUBLIC "-//W3C//DTD SVG 20010904//EN"
 "http://www.w3.org/TR/2001/REC-SVG-20010904/DTD/svg10.dtd">
<svg version="1.0" xmlns="http://www.w3.org/2000/svg"
 width="906.000000pt" height="906.000000pt" viewBox="0 0 906.000000 906.000000"
 preserveAspectRatio="xMidYMid meet">
<metadata>
Created by potrace 1.14, written by Peter Selinger 2001-2017
</metadata>
<g transform="translate(0.000000,906.000000) scale(0.100000,-0.100000)"
fill="#000000" stroke="none">
<path d="M4153 9029 c-39 -19 -192 -238 -1985 -2846 -1069 -1554 -1951 -2842
-1961 -2862 -24 -48 -18 -119 14 -166 18 -26 629 -451 2259 -1572 1229 -845
2255 -1547 2279 -1560 25 -13 60 -23 80 -23 52 0 114 35 148 83 175 245 3869
5630 3879 5654 20 47 17 93 -8 143 -22 42 -160 139 -2253 1578 -1227 843
-2252 1547 -2280 1563 -60 35 -113 37 -172 8z m1582 -1742 c55 -9 143 -25 195
-37 499 -111 866 -414 972 -802 30 -110 32 -347 4 -478 -60 -276 -219 -541
-434 -723 -147 -124 -370 -251 -574 -328 -49 -18 -86 -34 -84 -36 2 -2 55 -15
117 -29 367 -82 620 -238 783 -482 130 -196 184 -408 173 -676 -10 -231 -65
-443 -171 -653 -204 -408 -530 -712 -1011 -944 -181 -88 -305 -133 -490 -179
-306 -77 -543 -89 -1105 -54 -211 13 -424 19 -750 19 -466 0 -589 -8 -805 -49
-38 -8 -72 -12 -74 -11 -2 2 11 57 29 123 l33 119 112 11 c62 7 157 23 211 37
273 69 409 195 537 495 92 216 129 339 277 920 55 217 163 643 240 945 77 303
183 719 236 925 148 579 157 645 105 717 -42 59 -104 86 -186 81 -39 -2 -65 1
-65 7 1 6 11 53 23 105 l22 95 60 7 c33 4 141 17 240 29 195 22 475 72 675
118 69 16 126 28 127 27 2 -2 -8 -36 -22 -77 -58 -169 -168 -533 -200 -664
-144 -590 -235 -970 -235 -987 0 -19 4 -20 113 -14 518 31 852 163 1115 440
177 188 290 406 339 654 23 118 23 352 0 444 -70 281 -280 486 -597 582 -146
44 -251 58 -480 63 -685 16 -1314 -171 -1920 -572 -594 -393 -1018 -962 -1175
-1580 -44 -175 -59 -291 -59 -470 0 -234 38 -375 145 -539 56 -84 103 -127
289 -261 69 -50 155 -119 191 -155 56 -55 70 -75 84 -124 32 -108 1 -209 -82
-272 -176 -134 -465 18 -685 361 -260 404 -308 978 -132 1590 101 350 290 706
543 1020 552 687 1494 1176 2436 1265 61 5 126 12 145 14 93 10 670 -3 765
-17z"/>
<path d="M4615 4558 c-3 -7 -59 -229 -125 -493 -157 -621 -226 -873 -310
-1125 -113 -342 -204 -531 -321 -672 -23 -27 -40 -50 -38 -52 2 -2 47 -13 99
-24 537 -117 991 -91 1345 78 382 183 692 597 795 1065 65 298 44 564 -61 765
-129 247 -335 385 -644 434 -219 34 -730 51 -740 24z"/>
</g>
</svg>
